<svg id="Capa_1" data-name="Capa 1" xmlns="http://www.w3.org/2000/svg" viewBox="0 0 519.4859 174.05"><defs><style>.cls-1{fill:#46a8a7;}</style></defs><path class="cls-1" d="M158.4166,116.1046l.91-2.827v-2.77C159.097,112.4055,158.79,114.2646,158.4166,116.1046Z" transform="translate(-11.2571 -2.975)"/><path class="cls-1" d="M525.1463,71.4757a74.4807,74.4807,0,0,0-16.78-24.4659,77.3336,77.3336,0,0,0-78.6493-18.0835A73.7535,73.7535,0,0,0,400.881,47.1631a76.1975,76.1975,0,0,0-14.1736,19.2335q.1583-12.2043.1534-34.1353a7.4282,7.4282,0,0,0-.1246-1.313l-.0192-.1437-.0479-.1438a4.193,4.193,0,0,0-.6229-1.2554,3.1283,3.1283,0,0,0-.24-.297,2.38,2.38,0,0,0-.4409-.3738c0-.0095-.01-.0095-.0192-.0095a2.9129,2.9129,0,0,0-.9679-.4984,3.9116,3.9116,0,0,0-1.15-.1629,3.613,3.613,0,0,0-1.5142.3162,3.2423,3.2423,0,0,0-1.2746,1.0254,3.5612,3.5612,0,0,0-.4216.7188l-.0192.0479a6.522,6.522,0,0,0-.2779.8913l-.0192.115-.0191.1054c-.0192.2587-.0575.5845-.0575.9775V110.096c0,.8625,0,1.6674-.0192,2.4628v.7763c-.115,11.9215-.987,20.7092-2.4725,26.1813v.0191a40.0671,40.0671,0,0,1-16.6172,22.8655h-.01l-.01.01a41.4112,41.4112,0,0,1-46.3251.5462l-.01-.0095a40.9549,40.9549,0,0,1-10.8386-10.0145,39.6639,39.6639,0,0,1-6.3249-13.1289v-.01a66.1059,66.1059,0,0,1-1.8592-11.8257q-.6324-7.518-.6324-18.15V32.2613a6.73,6.73,0,0,0-.1342-1.3992,3.7154,3.7154,0,0,0-1.0254-1.9454,3.0616,3.0616,0,0,0-1.035-.6517,3.2723,3.2723,0,0,0-1.15-.2012c-.0767.01-.1916,0-.3737.0192h-.01c-.0575,0-.22-.0192-.47-.0192H234.6318V6.8849a5.0149,5.0149,0,0,0-.1821-1.3991,3.52,3.52,0,0,0-.47-1.0254,3.1515,3.1515,0,0,0-1.3512-1.15,3.811,3.811,0,0,0-1.62-.3354,4.6943,4.6943,0,0,0-1.4854.22,3.6905,3.6905,0,0,0-1.0637.5654,3.436,3.436,0,0,0-1.0734,1.4663,4.3978,4.3978,0,0,0-.2971,1.6578V28.0638H209.4471l-2.3383.6038h-.01a49.92,49.92,0,0,0-12.19,4.4369A71.53,71.53,0,0,0,181.56,41.4132a60.5578,60.5578,0,0,0-18.5531,24.648q.1583-12.1611.1534-33.8a5.8369,5.8369,0,0,0-.1629-1.4663,3.916,3.916,0,0,0-.4217-1.0541,3.26,3.26,0,0,0-1.3225-1.2746,3.6289,3.6289,0,0,0-1.7154-.4025,3.7656,3.7656,0,0,0-1.5237.3066,3.2043,3.2043,0,0,0-1.0254.7188,3.5762,3.5762,0,0,0-.8625,1.5333,5.5451,5.5451,0,0,0-.22,1.6388v35.18A75.5545,75.5545,0,0,0,140.9752,47.01a76.24,76.24,0,0,0-24.61-16.56,75.8183,75.8183,0,0,0-29.0562-5.52,75.9928,75.9928,0,0,0-29.2479,5.5582A75.2971,75.2971,0,0,0,33.49,47.1631a75.46,75.46,0,0,0,0,107.6289A75.02,75.02,0,0,0,58.138,171.4572a76.7139,76.7139,0,0,0,29.4588,5.5678,73.2412,73.2412,0,0,0,26.1238-4.6862,78.84,78.84,0,0,0,23.2967-14.02l.0288-.0288,3.4787-3.1816.0191-.0287a77.2918,77.2918,0,0,0,15.3619-21.0639v35.6686a4.966,4.966,0,0,0,.1821,1.3992,3.8417,3.8417,0,0,0,.47,1.035,3.2437,3.2437,0,0,0,1.3608,1.15,4.0981,4.0981,0,0,0,3.057.0766,3.2945,3.2945,0,0,0,1.955-2.0795,5.0174,5.0174,0,0,0,.23-1.5813V108.1026c0-.8528,0-1.6674.0287-2.4629v-.1724c0-2.06.048-4.0537.1438-5.9416v-.0192q.5606-14.9784,3.1624-23.6034c0-.01.01-.0288.01-.0383a60.2387,60.2387,0,0,1,16.5789-26.2292v-.01l.01-.01c6.9383-6.5645,15.5919-11.1452,26.1046-13.7519a.2252.2252,0,0,0,.0767-.0191.0862.0862,0,0,0,.0479-.01,8.2022,8.2022,0,0,0,.9583-.23H227.09V169.6842a4.7045,4.7045,0,0,0,.23,1.4854,3.49,3.49,0,0,0,.5558,1.0542,3.4366,3.4366,0,0,0,1.4662,1.0829,4.4469,4.4469,0,0,0,1.6675.2971,3.8367,3.8367,0,0,0,1.4375-.2588,3.3752,3.3752,0,0,0,1.0158-.6229,3.4965,3.4965,0,0,0,.9391-1.4566,5.0175,5.0175,0,0,0,.23-1.5813V35.6058h52.6213V115.52c0,9.2.5654,16.6269,1.7537,22.3384v.01a49.1453,49.1453,0,0,0,6.0086,15.4481,49.66,49.66,0,0,0,10.8866,12.5732,46.5683,46.5683,0,0,0,30.5991,11.1357c9.4586,0,17.8151-1.9358,24.9355-5.8745a45.9275,45.9275,0,0,0,17.4893-17.6043l.0671-.1151.0479-.115c.1917-.47.3833-.92.5654-1.37v17.7385a4.7944,4.7944,0,0,0,.115,1.083.4178.4178,0,0,0,.01.0479,4.3139,4.3139,0,0,0,.2875.8433l.0288.0479.0191.0479c.0575.1055.115.2109.1917.3354a2.6686,2.6686,0,0,0,.2587.345l.1054.1054a3.2754,3.2754,0,0,0,1.1787.805,4.0246,4.0246,0,0,0,1.428.2588,3.9181,3.9181,0,0,0,1.447-.2588,3.2872,3.2872,0,0,0,1.2938-.91,4.089,4.089,0,0,0,.6612-1.1595l.0671-.1726.0383-.1916a6.9233,6.9233,0,0,0,.1246-1.2267v-33.819a76.6611,76.6611,0,0,0,14.02,18.9268,75.0191,75.0191,0,0,0,24.648,16.6652,80.5129,80.5129,0,0,0,58.8408,0,73.6444,73.6444,0,0,0,24.4371-16.6748,75.1,75.1,0,0,0,16.4544-24.648,77.57,77.57,0,0,0,5.4816-29.4492A75.0755,75.0755,0,0,0,525.1463,71.4757ZM156.0975,100.6852c0,1.773-.0479,3.5075-.1821,5.1941v.0288a65.8955,65.8955,0,0,1-18.0739,41.61l-.048.0479-3.3157,3.3158-.0575.0575a71.9839,71.9839,0,0,1-22.0222,14.116,66.9756,66.9756,0,0,1-25.0888,4.715,68.3193,68.3193,0,0,1-26.2867-5.0216,69.1141,69.1141,0,0,1-22.2617-15.0935,66.0456,66.0456,0,0,1-20.2493-48.6827,69.918,69.918,0,0,1,4.9928-26.6412A67.3844,67.3844,0,0,1,38.4829,52.1464a67.0735,67.0735,0,0,1,22.1755-14.969,69.6074,69.6074,0,0,1,26.6509-4.9928,67.8822,67.8822,0,0,1,26.2771,5.0216A68.8589,68.8589,0,0,1,135.8482,52.3a68.6392,68.6392,0,0,1,14.2406,19.9714,65.1121,65.1121,0,0,1,5.8266,23.3351v.0383C156.05,97.2832,156.0975,98.97,156.0975,100.6852Zm3.23,12.5924-.91,2.827c.3738-1.84.68-3.6991.91-5.5966Zm359.14,14.0873a71.3251,71.3251,0,0,1-37.3073,37.384A68.8816,68.8816,0,0,1,454.7,169.7705a67.723,67.723,0,0,1-26.2771-5.06,68.8577,68.8577,0,0,1-22.2617-15.199c-10.6565-10.6661-17.0582-22.8655-19.3006-36.7995v-4.61c0-.9008,0-1.7441.0192-2.5874v-.0288c.115-12.18,1.1595-21.725,3.0091-28.51,0-.01.01-.0192.01-.0287a66.4522,66.4522,0,0,1,15.9751-24.8013,67.6694,67.6694,0,0,1,21.5335-14.7006l.0479-.0192h.01c.0383-.0192.0671-.0287.1054-.0479a61.3107,61.3107,0,0,1,8.0211-2.7408h.0192a71.8455,71.8455,0,0,1,19.09-2.4533,67.883,67.883,0,0,1,26.2772,5.0216,72.2866,72.2866,0,0,1,37.4606,37.24,67.3156,67.3156,0,0,1,5.05,26.2387A69.437,69.437,0,0,1,518.4668,127.3649Z" transform="translate(-11.2571 -2.975)"/></svg>