<svg width="120" height="88" viewBox="0 0 120 88" fill="none" xmlns="http://www.w3.org/2000/svg">
<path d="M10.8206 51.0528L17.5347 58.3774C17.7075 58.5482 17.8167 58.7429 17.8623 58.9614C17.902 59.164 17.8796 59.3582 17.7952 59.5439C17.6611 59.8388 17.4798 60.02 17.2513 60.0875C17.0229 60.155 16.7885 60.1341 16.5482 60.0248C16.4499 59.9801 16.3536 59.9165 16.2593 59.8341L8.31638 51.2981C8.13765 51.1114 8.02795 50.9033 7.98728 50.6739C7.95157 50.4335 7.99183 50.2145 8.10807 50.0169C8.19749 49.8203 8.33953 49.6674 8.53421 49.5582C8.72293 49.4331 8.93844 49.3795 9.18076 49.3974L20.6156 49.7333C20.7824 49.7433 20.9259 49.7756 21.0461 49.8302C21.341 49.9644 21.5311 50.1695 21.6165 50.4456C21.7068 50.7108 21.6998 50.958 21.5955 51.1874C21.5061 51.3841 21.364 51.537 21.1694 51.6462C20.9797 51.7445 20.7612 51.7901 20.5139 51.7831L10.7028 51.5727L10.8206 51.0528ZM15.7667 56.9604L14.2923 55.2022L16.3042 50.7782L18.3301 51.3239L15.7667 56.9604Z" fill="#EAEBED"/>
<path d="M17.4557 40.4358C17.8911 39.9083 18.3247 39.496 18.7565 39.1989C19.1961 38.8926 19.6054 38.717 19.9847 38.6722C20.3624 38.6105 20.6901 38.6942 20.9677 38.9233C21.1528 39.0761 21.2829 39.2767 21.3578 39.5253C21.4235 39.7662 21.3685 39.9931 21.1928 40.206C21.0706 40.354 20.949 40.4637 20.8279 40.535C20.7053 40.5893 20.581 40.6268 20.4551 40.6474C20.3292 40.6679 20.1965 40.7062 20.0569 40.7622C19.925 40.8089 19.765 40.918 19.5768 41.0895C19.387 41.244 19.254 41.3676 19.1776 41.4601C18.788 41.9321 18.5576 42.4187 18.4862 42.92C18.4225 43.4119 18.4939 43.891 18.7005 44.3571C18.8978 44.8155 19.2232 45.2319 19.6768 45.6062C20.121 45.9728 20.5915 46.2133 21.0884 46.3277C21.5836 46.4252 22.0628 46.4006 22.5261 46.254C22.9971 46.0981 23.4044 45.8119 23.7481 45.3954C23.9391 45.1641 24.0894 44.9536 24.1991 44.7641C24.3089 44.5746 24.3818 44.4014 24.4179 44.2445C24.4508 44.0538 24.4676 43.8732 24.4683 43.7027C24.4691 43.5321 24.5534 43.345 24.7215 43.1414C24.9201 42.9008 25.1515 42.7806 25.4158 42.7809C25.6708 42.7735 25.9094 42.8615 26.1315 43.0448C26.3629 43.2357 26.4688 43.541 26.4493 43.9605C26.4205 44.3725 26.2906 44.8409 26.0596 45.366C25.8269 45.8741 25.5082 46.3734 25.1034 46.864C24.5 47.5951 23.8102 48.0916 23.034 48.3535C22.2485 48.6077 21.442 48.6422 20.6145 48.4572C19.7947 48.2629 19.0238 47.8679 18.3019 47.2721C17.543 46.6458 17.0026 45.9431 16.6808 45.1641C16.3575 44.3683 16.2591 43.5636 16.3858 42.7502C16.5109 41.9199 16.8676 41.1485 17.4557 40.4358Z" fill="#EAEBED"/>
<path d="M31.3393 41.044C30.5189 41.6501 29.6799 42.0089 28.8223 42.1203C27.9672 42.215 27.1581 42.0892 26.395 41.7429C25.6415 41.3895 24.9902 40.8412 24.4411 40.0981C23.7993 39.2294 23.4275 38.3627 23.3257 37.498C23.2264 36.6165 23.3403 35.8013 23.6673 35.0524C23.9943 34.3035 24.4762 33.6937 25.1132 33.2231C25.6055 32.8594 26.1436 32.6185 26.7277 32.5003C27.3214 32.3749 27.9191 32.366 28.5207 32.4735C29.1152 32.5714 29.6801 32.7806 30.2154 33.1013C30.7604 33.4148 31.2254 33.8322 31.6105 34.3533C31.772 34.5921 31.8193 34.848 31.7526 35.1212C31.6858 35.3943 31.5366 35.6164 31.305 35.7876L25.7747 39.8736L24.2708 38.7468L29.5839 34.8212L29.4793 35.3461L29.1905 34.9552C28.9644 34.6896 28.6777 34.5135 28.3303 34.427C27.9925 34.3334 27.6422 34.3237 27.2793 34.3979C26.9188 34.4553 26.589 34.5945 26.2898 34.8156C26.0003 35.0295 25.7586 35.2678 25.5647 35.5304C25.3708 35.793 25.2499 36.0838 25.202 36.4026C25.1541 36.7215 25.1912 37.0746 25.3132 37.4618C25.4353 37.8491 25.671 38.2792 26.0204 38.7522C26.4055 39.2733 26.8397 39.6389 27.323 39.8487C27.8088 40.0418 28.2919 40.1101 28.7723 40.0535C29.2553 39.9802 29.6898 39.8009 30.0758 39.5157C30.4329 39.2518 30.6962 39.0125 30.8658 38.7977C31.0353 38.5829 31.1543 38.3906 31.2227 38.2207C31.2937 38.034 31.3608 37.8724 31.4242 37.7361C31.5338 37.5209 31.6658 37.3562 31.8202 37.2421C32.0325 37.0852 32.2597 37.0293 32.5018 37.0742C32.7535 37.112 32.9507 37.2274 33.0933 37.4204C33.2859 37.681 33.3255 38.0173 33.2121 38.4293C33.118 38.8271 32.9048 39.2755 32.5724 39.7748C32.2329 40.2644 31.8219 40.6874 31.3393 41.044Z" fill="#EAEBED"/>
<path d="M36.6279 37.5502C36.3435 37.6785 36.0664 37.6916 35.7966 37.5895C35.5218 37.4765 35.3203 37.2778 35.192 36.9934L32.1355 30.2168C32.0072 29.9324 31.9941 29.6553 32.0962 29.3854C32.1933 29.1047 32.3841 28.9001 32.6685 28.7719C32.9529 28.6436 33.2325 28.6359 33.5073 28.749C33.7771 28.8511 33.9762 29.0443 34.1045 29.3287L34.8001 30.8711L34.1894 29.8235C34.1913 29.5067 34.2409 29.2079 34.338 28.9272C34.4412 28.6305 34.5835 28.3623 34.7649 28.1225C34.9414 27.8717 35.1516 27.6519 35.3955 27.4629C35.6394 27.2739 35.898 27.1178 36.1715 26.9944C36.4997 26.8464 36.8151 26.816 37.1177 26.9033C37.4313 26.9857 37.6448 27.1526 37.7583 27.4042C37.9211 27.7652 37.9466 28.0697 37.8346 28.3176C37.7177 28.5546 37.5499 28.7225 37.3311 28.8212C37.1233 28.9149 36.9146 28.963 36.705 28.9653C36.5064 28.9628 36.2977 29.0108 36.0789 29.1095C35.882 29.1983 35.7019 29.3388 35.5384 29.531C35.381 29.7073 35.2592 29.9334 35.173 30.2093C35.0977 30.4802 35.072 30.788 35.0958 31.1326C35.1256 31.4615 35.2294 31.8228 35.407 32.2166L37.161 36.1053C37.2892 36.3897 37.3048 36.6723 37.2077 36.9531C37.1056 37.2229 36.9123 37.422 36.6279 37.5502Z" fill="#EAEBED"/>
<path d="M43.6651 24.6769C44.3297 24.515 44.9239 24.4444 45.4476 24.465C45.983 24.4828 46.4161 24.5873 46.7467 24.7785C47.0862 24.9552 47.2985 25.2184 47.3837 25.5682C47.4405 25.8014 47.4245 26.0399 47.3357 26.2839C47.2441 26.5162 47.0642 26.665 46.796 26.7303C46.6095 26.7757 46.4464 26.7907 46.3068 26.7753C46.176 26.7454 46.054 26.7011 45.9409 26.6422C45.8277 26.5833 45.6985 26.5345 45.5532 26.4957C45.4196 26.4542 45.2261 26.4457 44.9727 26.4704C44.7282 26.4806 44.5476 26.4998 44.431 26.5282C43.8364 26.6731 43.3605 26.9248 43.0032 27.2836C42.6576 27.6395 42.428 28.0659 42.3144 28.5629C42.198 29.0483 42.2093 29.5766 42.3485 30.1479C42.4848 30.7075 42.7177 31.1819 43.0471 31.571C43.3854 31.9456 43.7839 32.2128 44.2428 32.3728C44.7134 32.5299 45.211 32.5446 45.7356 32.4168C46.0271 32.3458 46.2735 32.2672 46.4749 32.1811C46.6762 32.095 46.8383 32 46.9612 31.8959C47.1017 31.7629 47.2233 31.6283 47.326 31.4921C47.4287 31.356 47.6083 31.2566 47.8648 31.1942C48.1679 31.1203 48.4252 31.1626 48.6367 31.3211C48.8454 31.4679 48.9838 31.6812 49.052 31.961C49.123 32.2525 49.0251 32.5604 48.7582 32.8847C48.4886 33.1974 48.104 33.4949 47.6046 33.7771C47.1141 34.0448 46.5598 34.2539 45.9419 34.4044C45.0208 34.6288 44.171 34.6134 43.3926 34.3584C42.6113 34.0917 41.9446 33.6366 41.3926 32.9929C40.8523 32.3464 40.4713 31.5685 40.2498 30.6591C40.017 29.703 40.0049 28.8167 40.2135 28.0001C40.431 27.169 40.834 26.4657 41.4225 25.8901C42.0198 25.3 42.7674 24.8956 43.6651 24.6769Z" fill="#EAEBED"/>
<path d="M57.7306 23.1762C58.0425 23.1683 58.303 23.2637 58.5121 23.4625C58.7212 23.6612 58.8299 23.9226 58.8381 24.2465L59.0313 31.858C59.0393 32.1699 58.944 32.4364 58.7455 32.6575C58.5468 32.8666 58.2915 32.9751 57.9796 32.9831C57.6677 32.991 57.4071 32.8956 57.198 32.6968C56.9886 32.4861 56.88 32.2247 56.872 31.9128L56.8497 31.0311L57.2496 31.183C57.2536 31.339 57.1745 31.533 57.0123 31.7652C56.8499 31.9854 56.6274 32.2071 56.345 32.4304C56.0626 32.6536 55.7254 32.8482 55.3335 33.0142C54.9533 33.1679 54.5352 33.2506 54.0794 33.2621C53.2516 33.2831 52.4966 33.0922 51.8141 32.6894C51.1314 32.2746 50.5826 31.7004 50.1679 30.9667C49.7648 30.2206 49.5509 29.3618 49.5263 28.3901C49.5013 27.4064 49.6713 26.5378 50.0363 25.7843C50.413 25.0185 50.9259 24.4173 51.575 23.9807C52.2239 23.5321 52.9501 23.2976 53.7539 23.2772C54.2697 23.2641 54.7455 23.33 55.1814 23.475C55.6172 23.62 55.9941 23.8085 56.3121 24.0405C56.6421 24.2722 56.8942 24.5119 57.0686 24.7595C57.2546 24.9949 57.3498 25.1965 57.354 25.3645L56.7122 25.6149L56.6788 24.3013C56.6709 23.9894 56.7663 23.7289 56.9651 23.5198C57.1635 23.2987 57.4187 23.1841 57.7306 23.1762ZM54.299 31.2759C54.8269 31.2625 55.2854 31.1188 55.6746 30.8449C56.0637 30.5709 56.3605 30.2033 56.5648 29.7419C56.7812 29.2803 56.8822 28.7676 56.8679 28.2037C56.8533 27.6279 56.7262 27.115 56.4867 26.6649C56.2592 26.2145 55.9442 25.8624 55.5416 25.6086C55.1391 25.3547 54.6739 25.2345 54.146 25.2479C53.6302 25.261 53.1777 25.4045 52.7885 25.6784C52.3993 25.9524 52.0966 26.3202 51.8802 26.7819C51.6759 27.2432 51.581 27.7618 51.5956 28.3376C51.6099 28.9014 51.7308 29.4085 51.9583 29.8589C52.1978 30.3089 52.5189 30.6609 52.9214 30.9148C53.324 31.1686 53.7832 31.289 54.299 31.2759Z" fill="#EAEBED"/>
<path d="M76.6316 23.3548C76.9288 23.4497 77.1436 23.6254 77.2759 23.8818C77.4082 24.1381 77.425 24.4207 77.3265 24.7293L73.943 35.3263C73.8481 35.6235 73.6706 35.8439 73.4106 35.9877C73.1542 36.1199 72.8774 36.1386 72.5802 36.0437C72.283 35.9488 72.0682 35.7732 71.936 35.5168C71.8073 35.249 71.7904 34.9665 71.8853 34.6693L72.1536 33.8291L72.4816 34.1038C72.4341 34.2524 72.2957 34.4098 72.0663 34.5759C71.8406 34.7306 71.5577 34.867 71.2176 34.9851C70.8776 35.1033 70.4952 35.1765 70.0705 35.2046C69.6609 35.225 69.2389 35.1659 68.8045 35.0272C68.0158 34.7753 67.3652 34.3472 66.8527 33.7427C66.344 33.1267 66.0141 32.4042 65.8632 31.575C65.7273 30.738 65.8072 29.8565 66.1029 28.9306C66.4021 27.9932 66.8478 27.2285 67.4399 26.6366C68.0471 26.0368 68.729 25.6373 69.4854 25.4379C70.2456 25.2272 71.0086 25.244 71.7745 25.4886C72.266 25.6455 72.6939 25.864 73.0579 26.144C73.422 26.424 73.7162 26.7258 73.9404 27.0493C74.176 27.3765 74.3356 27.6857 74.419 27.9768C74.5174 28.2602 74.5411 28.4819 74.49 28.6419L73.8016 28.6678L75.2688 24.0723C75.3637 23.7751 75.5394 23.5603 75.7957 23.4281C76.0558 23.2843 76.3344 23.2599 76.6316 23.3548ZM69.664 33.2231C70.1669 33.3837 70.6472 33.3985 71.1047 33.2674C71.5623 33.1364 71.9633 32.8865 72.3077 32.5178C72.6636 32.1528 72.9274 31.7016 73.0989 31.1643C73.2741 30.6156 73.3224 30.0894 73.2439 29.5856C73.1769 29.0856 72.9949 28.6495 72.6979 28.2776C72.401 27.9057 72.001 27.6394 71.498 27.4788C71.0065 27.3218 70.532 27.3089 70.0744 27.4399C69.6169 27.571 69.2102 27.819 68.8543 28.1841C68.5098 28.5528 68.25 29.0115 68.0748 29.5602C67.9032 30.0975 67.851 30.6162 67.9181 31.1162C67.9966 31.62 68.1843 32.0578 68.4812 32.4298C68.7782 32.8017 69.1724 33.0662 69.664 33.2231Z" fill="#EAEBED"/>
<path d="M78.3939 39.2615C77.5231 38.7302 76.8745 38.0884 76.4479 37.3362C76.0377 36.5799 75.8492 35.783 75.8821 34.9457C75.9253 34.1145 76.1876 33.3046 76.6688 32.5158C77.2313 31.5939 77.8939 30.9227 78.6564 30.5024C79.4354 30.078 80.2334 29.8761 81.0503 29.8965C81.8672 29.917 82.6137 30.1335 83.2898 30.546C83.8122 30.8647 84.2383 31.2723 84.568 31.7687C84.9079 32.2713 85.1416 32.8215 85.2689 33.4193C85.4024 34.0068 85.4216 34.6089 85.3265 35.2256C85.2416 35.8486 85.0304 36.4367 84.6929 36.9898C84.5326 37.2294 84.3134 37.3698 84.0353 37.411C83.7571 37.4521 83.4952 37.3977 83.2493 37.2477L77.3796 33.6664L77.8561 31.8485L83.4954 35.2892L82.9698 35.3903L83.2229 34.9754C83.3837 34.6658 83.4386 34.3339 83.3878 33.9795C83.3471 33.6314 83.224 33.3033 83.0184 32.9951C82.8294 32.6829 82.576 32.43 82.2585 32.2362C81.9512 32.0487 81.6393 31.9147 81.323 31.8341C81.0067 31.7536 80.6918 31.7512 80.3784 31.8271C80.065 31.903 79.752 32.0705 79.4393 32.3295C79.1266 32.5886 78.8172 32.9691 78.5109 33.471C78.1734 34.0242 77.9986 34.5642 77.9864 35.0909C77.9908 35.6137 78.1097 36.0869 78.3433 36.5105C78.5933 36.9302 78.9232 37.265 79.3329 37.515C79.7119 37.7462 80.0329 37.8999 80.2958 37.9759C80.5586 38.052 80.7816 38.0896 80.9648 38.0889C81.1645 38.0843 81.3394 38.0855 81.4896 38.0928C81.7302 38.1131 81.9325 38.1733 82.0964 38.2733C82.3218 38.4108 82.4593 38.6001 82.5089 38.8413C82.5688 39.0887 82.5363 39.3148 82.4113 39.5197C82.2425 39.7963 81.946 39.9598 81.5217 40.0101C81.1178 40.073 80.622 40.0446 80.0343 39.925C79.4529 39.7952 78.906 39.574 78.3939 39.2615Z" fill="#EAEBED"/>
<path d="M97.0226 42.9001C97.551 43.7016 97.7453 44.4215 97.6056 45.0598C97.4759 45.6915 97.1451 46.2689 96.6133 46.7921L96.5801 46.4474L96.8998 46.4091C97.2095 46.3774 97.5771 46.4009 98.0028 46.4796C98.4384 46.5518 98.862 46.7037 99.2735 46.9354C99.7016 47.1706 100.061 47.5086 100.352 47.9494C100.827 48.6707 101.032 49.3191 100.966 49.8946C100.906 50.48 100.662 51.0146 100.234 51.4984C99.8152 51.9755 99.2904 52.4221 98.6592 52.8383L94.8121 55.3747C94.5517 55.5465 94.2751 55.6066 93.9825 55.5552C93.6999 55.4972 93.4727 55.3379 93.301 55.0774C93.1292 54.817 93.0724 54.5454 93.1304 54.2628C93.1984 53.9736 93.3627 53.7431 93.6232 53.5714L97.4703 51.035C97.8009 50.817 98.07 50.582 98.2776 50.3302C98.4953 50.0717 98.6149 49.7844 98.6365 49.4683C98.6581 49.1522 98.5401 48.7988 98.2825 48.4081C98.0315 48.0274 97.7366 47.7547 97.398 47.5899C97.0594 47.425 96.7086 47.3617 96.3456 47.3998C95.9992 47.4413 95.6608 47.571 95.3301 47.789L91.4831 50.3254C91.2226 50.4972 90.946 50.5573 90.6534 50.5059C90.3708 50.4479 90.1436 50.2886 89.9719 50.0281C89.8002 49.7677 89.7433 49.4961 89.8013 49.2135C89.8694 48.9243 90.0336 48.6938 90.2941 48.5221L94.1412 45.9856C94.4718 45.7677 94.7409 45.5327 94.9486 45.2809C95.1662 45.0224 95.2858 44.7351 95.3074 44.419C95.329 44.1029 95.211 43.7495 94.9534 43.3588C94.7024 42.9781 94.4076 42.7054 94.0689 42.5405C93.7303 42.3757 93.3795 42.3124 93.0165 42.3505C92.6702 42.392 92.3317 42.5217 92.0011 42.7397L88.154 45.2761C87.8935 45.4478 87.6169 45.508 87.3243 45.4566C87.0417 45.3986 86.8145 45.2393 86.6428 44.9788C86.4711 44.7184 86.4142 44.4468 86.4722 44.1642C86.5403 43.875 86.7045 43.6445 86.965 43.4728L93.1715 39.3808C93.4319 39.209 93.7035 39.1522 93.9861 39.2102C94.2787 39.2616 94.5109 39.4176 94.6826 39.6781C94.8544 39.9385 94.9062 40.2134 94.8382 40.5026C94.7801 40.7852 94.6209 41.0124 94.3604 41.1841L93.7142 41.6102L93.6107 41.355C93.8404 41.3329 94.1033 41.3392 94.3994 41.374C94.7054 41.4022 95.0196 41.4754 95.3418 41.5935C95.6641 41.7116 95.9677 41.8779 96.2529 42.0924C96.548 42.3003 96.8046 42.5695 97.0226 42.9001Z" fill="#EAEBED"/>
<path d="M95.5213 58.8739C95.227 58.9775 94.9441 58.969 94.6726 58.8484C94.4124 58.7237 94.2305 58.5142 94.1269 58.2199C94.0233 57.9257 94.0338 57.6484 94.1584 57.3882C94.2944 57.1241 94.5095 56.9402 94.8038 56.8365L101.816 54.3673C102.11 54.2636 102.387 54.2742 102.647 54.3988C102.919 54.5195 103.107 54.727 103.21 55.0212C103.314 55.3155 103.298 55.5948 103.162 55.8589C103.037 56.1191 102.827 56.301 102.533 56.4046L95.5213 58.8739ZM103.817 54.9029C103.785 54.8123 103.789 54.6775 103.828 54.4985C103.882 54.3268 104.001 54.2147 104.186 54.1623C104.288 54.1264 104.408 54.1225 104.545 54.1505L106.623 54.5254C106.84 54.5635 107.044 54.6379 107.236 54.7485C107.428 54.8591 107.559 55.0163 107.631 55.22C107.743 55.537 107.74 55.7989 107.622 56.0058C107.515 56.2088 107.341 56.3464 107.099 56.4188C106.982 56.4474 106.851 56.4553 106.707 56.4425C106.566 56.4411 106.416 56.4114 106.256 56.3533L104.375 55.5652C104.211 55.4959 104.088 55.3993 104.006 55.2754C103.924 55.1515 103.861 55.0274 103.817 54.9029Z" fill="#EAEBED"/>
</svg>
